<svg xmlns="http://www.w3.org/2000/svg" viewBox="0 0 24 24">
  <path d="M3.5,20h17c0.276,0,0.5-0.224,0.5-0.5V7c0-0.276-0.224-0.5-0.5-0.5h-17C3.224,6.5,3,6.724,3,7v12.5C3,19.776,3.224,20,3.5,20z M4,8h7v4H4V8z M20,18H4v-7h16V18z"/>
  <rect x="6" y="11" width="1" height="1"/>
  <rect x="8" y="11" width="1" height="1"/>
  <rect x="10" y="11" width="1" height="1"/>
  <rect x="12" y="11" width="1" height="1"/>
  <rect x="14" y="11" width="1" height="1"/>
  <rect x="16" y="11" width="1" height="1"/>
  <rect x="18" y="11" width="1" height="1"/>
</svg>
